# AST/ASF file generated using VICON BodyLanguage
# -----------------------------------------------
:version 1.10
:name VICON
:units
  mass 1.0
  length 0.45
  angle deg
:documentation
   .ast/.asf automatically generated from VICON data using
   VICON BodyBuilder and BodyLanguage model FoxedUp or BRILLIANT.MOD
:root
   order TX TY TZ RX RY RZ
   axis XYZ
   position 0 0 0  
   orientation 0 0 0 
:bonedata
  begin
     id 1 
     name lhipjoint
     direction 0.693937 -0.600361 0.397515 
     length 2.37164 
     axis 0 0 0  XYZ
  end
  begin
     id 2 
     name lfemur
     direction 0.34202 -0.939693 0  
     length 6.18497  
     axis 0 0 20  XYZ
    dof rx ry rz
    limits (-160.0 20.0)
           (-70.0 70.0)
           (-60.0 70.0)
  end
  begin
     id 3 
     name ltibia
     direction 0.34202 -0.939693 0   
     length 6.91601   
     axis 0 0 20   XYZ
    dof rx
    limits (-10.0 170.0)
  end
  begin
     id 4 
     name lfoot
     direction 0.0978718 -0.2689 0.958182   
     length 1.81453   
     axis -90 7.62852e-016 20   XYZ
    dof rx rz
    limits (-45.0 90.0)
           (-70.0 20.0)
  end
  begin
     id 5 
     name ltoes
     direction 1.53569e-011 -4.21951e-011 1   
     length 0.912052   
     axis -90 7.62852e-016 20   XYZ
    dof rx
    limits (-90.0 20.0)
  end
  begin
     id 6 
     name rhipjoint
     direction -0.643996 -0.637876 0.422354   
     length 2.23216  
     axis 0 0 0  XYZ 
  end
  begin
     id 7 
     name rfemur
     direction -0.34202 -0.939693 0   
     length 6.15404   
     axis 0 0 -20   XYZ
    dof rx ry rz
    limits (-160.0 20.0)
           (-70.0 70.0)
           (-70.0 60.0)
  end
  begin
     id 8 
     name rtibia
     direction -0.34202 -0.939693 0   
     length 6.86744   
     axis 0 0 -20   XYZ
    dof rx
    limits (-10.0 170.0)
 end
 begin
     id 9 
     name rfoot
     direction -0.118701 -0.326127 0.937844   
     length 1.9243  
     axis -90 -7.62852e-016 -20   XYZ
    dof rx rz
    limits (-45.0 90.0)
           (-20.0 70.0)
  end
  begin
     id 10 
     name rtoes
     direction -1.5356e-011 -4.2181e-011 1   
     length 0.958865   
     axis -90 -7.62852e-016 -20   XYZ
    dof rx
    limits (-90.0 20.0)
  end
  begin
     id 11 
     name lowerback
     direction 0.0310826 0.968686 -0.246334   
     length 2.00021   
     axis 0 0 0   XYZ
    dof rx ry rz
    limits (-20.0 45.0)
           (-30.0 30.0)
           (-30.0 30.0)
  end
  begin
     id 12 
     name upperback
     direction -0.0152834 0.999474 -0.0286152   
     length 2.03728   
     axis 0 0 0   XYZ
    dof rx ry rz
    limits (-20.0 45.0)
           (-30.0 30.0)
           (-30.0 30.0)
  end
  begin
     id 13 
     name thorax
     direction -0.0323701 0.996236 0.0804149   
     length 2.16   
     axis 0 0 0   XYZ
    dof rx ry rz
    limits (-20.0 45.0)
           (-30.0 30.0)
           (-30.0 30.0)
  end
  begin
     id 14 
     name lowerneck
     direction 0.0307935 0.982251 0.185027   
     length 1.43558   
     axis 0 0 0   XYZ
    dof rx ry rz
    limits (-20.0 45.0)
           (-30.0 30.0)
           (-30.0 30.0)
  end
  begin
     id 15 
     name upperneck
     direction -0.0927153 0.994775 0.0427454   
     length 1.44603   
     axis 0 0 0   XYZ
    dof rx ry rz
    limits (-20.0 45.0)
           (-30.0 30.0)
           (-30.0 30.0)
  end
  begin
     id 16
     name head
     direction -0.0341265 0.999406 -0.00472033  
     length 1.45931  
     axis 0 0 0   XYZ
    dof rx ry rz
    limits (-20.0 45.0)
           (-30.0 30.0)
           (-30.0 30.0)
  end
  begin
     id 17 
     name lclavicle
     direction 0.820755 0.555306 -0.134151  
     length 2.66075  
     axis 0 0 0   XYZ
    dof ry rz
    limits (-20.0 10.0)
           (0.0 20.0)
  end
  begin
     id 18 
     name lhumerus
     direction 1 -4.48971e-011 5.24853e-027   
     length 5.0546   
     axis -180 -30 -90   XYZ
    dof rx ry rz
    limits (-60.0 90.0)
           (-90.0 90.0)
           (-90.0 90.0)
  end
  begin
     id 19
     name lradius
     direction 1 -4.48971e-011 2.76575e-028   
     length 3.39013   
     axis -180 -30 -90   XYZ
    dof rx
    limits (-10.0 170.0)
  end
  begin
     id 20
     name lwrist
     direction 1 -4.48939e-011 -2.27826e-027   
     length 1.69507   
     axis 2.17013e-015 90 90   XYZ
    dof ry
    limits (-180.0 0.0)
 end
  begin
     id 21 
     name lhand
     direction 1 -4.49009e-011 -4.55652e-027   
     length 0.572425   
     axis 2.90745e-015 90 90   XYZ
    dof rx rz
    limits (-90.0 90.0)
           (-45.0 45.0)
  end
  begin
     id 22 
     name lfingers
     direction 1 -4.48955e-011 -9.11303e-027   
     length 0.461504   
     axis 5.81489e-015 90 90   XYZ
    dof rx
    limits (0.0 90.0)
  end
  begin
     id 23
     name lthumb
     direction 0.707107 -6.34929e-011 0.707107   
     length 0.66263   
     axis -90 45 2.85299e-015   XYZ
    dof rx rz
    limits (-45.0 45.0)
           (-45.0 45.0)
  end
  begin
     id 24 
     name rclavicle
     direction -0.754477 0.632921 -0.173712   
     length 2.73081  
     axis 0 0 0   XYZ 
    dof ry rz
    limits (-10.0 20.0)
           (-20.0 0.0)
  end
  begin
     id 25 
     name rhumerus
     direction -1 -4.48969e-011 5.1496e-027  
     length 5.0701   
     axis -180 30 90   XYZ
    dof rx ry rz
    limits (-90.0 60.0)
           (-90.0 90.0)
           (-90.0 90.0)
  end
  begin
     id 26 
     name rradius
     direction -1 -4.48967e-011 -7.15624e-028   
     length 3.14957   
     axis -180 30 90   XYZ
    dof rx
    limits (-10.0 170.0)
  end
  begin
     id 27 
     name rwrist
     direction -1 -4.48938e-011 -2.27826e-027   
     length 1.57479   
     axis 2.17013e-015 -90 -90   XYZ
    dof ry
    limits (-180.0 0.0)
  end
  begin
     id 28
     name rhand
     direction -1 -4.49008e-011 -4.55652e-027   
     length 0.718191   
     axis 2.90745e-015 -90 -90   XYZ
    dof rx rz
    limits (-90.0 90.0)
           (-45.0 45.0)
  end
  begin
     id 29
     name rfingers
     direction -1 -4.48953e-011 -9.11303e-027   
     length 0.579024   
     axis 5.81489e-015 -90 -90   XYZ
    dof rx
    limits (0.0 90.0)
  end
  begin
     id 30
     name rthumb
     direction -0.707107 -6.34937e-011 0.707107   
     length 0.831366   
     axis -90 -45 -2.85299e-015   XYZ
    dof rx rz
    limits (-45.0 45.0)
           (-45.0 45.0)
  end
:hierarchy
  begin
    root lhipjoint rhipjoint lowerback
    lhipjoint lfemur
    lfemur ltibia
    ltibia lfoot
    lfoot ltoes
    rhipjoint rfemur
    rfemur rtibia
    rtibia rfoot
    rfoot rtoes
    lowerback upperback
    upperback thorax
    thorax lowerneck lclavicle rclavicle
    lowerneck upperneck
    upperneck head
    lclavicle lhumerus
    lhumerus lradius
    lradius lwrist
    lwrist lhand lthumb
    lhand lfingers
    rclavicle rhumerus
    rhumerus rradius
    rradius rwrist
    rwrist rhand rthumb
    rhand rfingers
  end

#!OML:ASF H:\Male1\Project 1\Capture day 1\Session 1\Male1.ASF
:FULLY-SPECIFIED
:DEGREES
49
root 5.60082 14.3127 0.11988 -205.156 84.7146 -202.087
lowerback 11.8473 0.587879 -5.1521
upperback 4.05336 0.32999 -1.98851
thorax -2.40252 0.24297 0.781981
lowerneck -12.4466 1.93644 3.86647
upperneck 5.11989 2.16743 -2.33789
head 4.01647 1.04553 -1.32545
rclavicle -6.55989e-015 1.74931e-014
rhumerus -61.282 20.2676 -95.926
rradius 93.8705
rwrist -26.8445
rhand -33.0017 21.1503
rfingers 7.12502
rthumb -6.21588 -8.7385
lclavicle -6.55989e-015 1.74931e-014
lhumerus -72.1705 5.73739 76.5517
lradius 96.0333
lwrist 27.4724
lhand -29.2894 10.7741
lfingers 7.12502
lthumb -2.63116 40.7377
rfemur -9.84354 -1.79984 19.6641
rtibia 84.9672
rfoot -19.0662 -24.5401
rtoes -20.9072
lfemur -25.0071 -16.3337 -25.5393
ltibia 52.754
lfoot -22.1693 5.46733
ltoes -8.12628
50
root 6.24981 14.2721 0.122229 -212.341 84.8532 -209.679
lowerback 11.6019 0.567046 -5.78534
upperback 3.98458 0.242706 -1.87999
thorax -2.33509 0.193742 1.26295
lowerneck -12.6067 2.2105 3.94725
upperneck 5.24314 2.54305 -2.6599
head 4.11565 1.21617 -1.42157
rclavicle 1.19271e-015 7.95139e-015
rhumerus -61.5106 19.322 -95.9486
rradius 92.7421
rwrist -28.7472
rhand -33.0353 21.5496
rfingers 7.12502
rthumb -6.24828 -8.3382
lclavicle 1.19271e-015 7.95139e-015
lhumerus -68.391 4.44353 78.761
lradius 97.2684
lwrist 26.8379
lhand -28.6484 10.6066
lfingers 7.12502
lthumb -2.01212 40.5768
rfemur -16.1245 -1.22553 18.8257
rtibia 87.7736
rfoot -20.3322 -24.5519
rtoes -18.3789
lfemur -22.6269 -16.1651 -26.7641
ltibia 53.6294
lfoot -24.9674 6.05131
ltoes -7.31352
51
root 6.90179 14.2689 0.130634 -213.641 85.3061 -210.8
lowerback 11.8714 0.438095 -5.7649
upperback 4.02341 0.0618051 -1.5696
thorax -2.43015 0.102565 1.59852
lowerneck -12.9608 2.54811 4.62322
upperneck 6.00202 2.98499 -3.86388
head 4.01949 1.37244 -1.71874
rclavicle -1.09332e-014 -1.59028e-014
rhumerus -63.0785 19.0824 -96.2117
rradius 93.4648
rwrist -32.124
rhand -33.4938 20.6358
rfingers 7.12502
rthumb -6.69096 -9.23846
lclavicle -1.09332e-014 -1.59028e-014
lhumerus -64.9925 3.28118 80.5783
lradius 99.0845
lwrist 26.6781
lhand -28.2773 11.2119
lfingers 7.12502
lthumb -1.65374 41.1852
rfemur -21.4725 -0.481978 19.0326
rtibia 88.8029
rfoot -21.1404 -25.1025
rtoes -18.1404
lfemur -19.155 -15.6548 -27.3536
ltibia 53.6487
lfoot -27.2345 6.36584
ltoes -6.78825
52
root 7.57251 14.2901 0.148617 -213.027 84.7387 -209.719
lowerback 12.1326 -0.0654755 -6.17953
upperback 4.13784 -0.653001 -1.31281
thorax -2.39099 -0.255891 2.19768
lowerneck -12.7173 2.93363 4.97269
upperneck 6.18495 3.51073 -4.44033
head 4.07641 1.61003 -1.91517
rclavicle -1.09332e-014 -8.34896e-015
rhumerus -64.7615 19.0099 -96.1982
rradius 94.0882
rwrist -33.8629
rhand -33.1309 19.5982
rfingers 7.12502
rthumb -6.34063 -10.2869
lclavicle -1.09332e-014 -8.34896e-015
lhumerus -62.5823 2.5076 82.2305
lradius 101.173
lwrist 25.7969
lhand -28.0111 8.13537
lfingers 7.12502
lthumb -1.39661 38.1105
rfemur -25.7595 -0.773207 18.7319
rtibia 88.1813
rfoot -21.5751 -25.0466
rtoes -19.1306
lfemur -14.7925 -15.651 -28.4395
ltibia 52.6111
lfoot -28.4524 7.27809
ltoes -9.96889
53
root 8.24343 14.3263 0.174524 -216.651 84.7914 -213
lowerback 12.0737 -0.398084 -6.76318
upperback 4.23306 -1.14269 -1.08581
thorax -2.19675 -0.510356 2.82683
lowerneck -12.129 3.39384 5.21649
upperneck 6.07891 4.1458 -4.81091
head 3.99259 1.91616 -2.0281
rclavicle 6.4605e-016 3.18055e-015
rhumerus -66.5211 18.9591 -96.0037
rradius 94.7101
rwrist -33.4991
rhand -32.9571 20.3104
rfingers 7.12502
rthumb -6.17277 -9.57967
lclavicle 6.4605e-016 3.18055e-015
lhumerus -60.3613 1.82357 83.5234
lradius 103.867
lwrist 24.2766
lhand -26.0515 7.18414
lfingers 7.12502
lthumb 0.496004 37.1633
rfemur -29.9646 -0.176006 18.5264
rtibia 86.1249
rfoot -21.4359 -24.4697
rtoes -21.3307
lfemur -10.3558 -14.7576 -29.4035
ltibia 51.1069
lfoot -28.6512 7.20508
ltoes -7.5755
54
root 8.93282 14.4218 0.198136 -218.841 84.8251 -214.93
lowerback 11.7748 -0.809999 -7.07908
upperback 4.44339 -1.67779 -0.907384
thorax -1.74234 -0.798167 3.24999
lowerneck -11.7868 3.88568 5.47417
upperneck 5.83757 4.80985 -5.20443
head 3.9135 2.23476 -2.14703
rclavicle -3.72721e-015 1.43125e-014
rhumerus -68.0917 18.7788 -95.7161
rradius 95.117
rwrist -32.2069
rhand -33.032 21.0089
rfingers 7.12502
rthumb -6.24511 -8.87904
lclavicle -3.72721e-015 1.43125e-014
lhumerus -58.5985 1.1445 84.5902
lradius 106.743
lwrist 23.483
lhand -26.4841 7.16428
lfingers 7.12502
lthumb 0.0781509 37.144
rfemur -33.148 0.286694 18.4156
rtibia 82.1786
rfoot -20.6363 -23.6643
rtoes -23.2663
lfemur -6.0583 -13.5062 -30.1446
ltibia 49.4491
lfoot -26.1879 8.05761
ltoes -10.1802
55
root 9.64462 14.5778 0.218283 -221.117 84.7601 -216.924
lowerback 11.4731 -1.21199 -7.22892
upperback 4.71259 -2.17571 -0.845631
thorax -1.23132 -1.06909 3.44356
lowerneck -11.6535 4.27202 5.72644
upperneck 5.55858 5.32491 -5.62551
head 3.85339 2.47684 -2.28219
rclavicle 3.42407e-014 -2.78299e-015
rhumerus -69.5771 18.1695 -95.2277
rradius 95.5146
rwrist -31.0912
rhand -32.6969 21.9933
rfingers 7.12502
rthumb -5.92159 -7.9039
lclavicle 3.42407e-014 -2.78299e-015
lhumerus -56.8088 0.0513152 85.4769
lradius 109.625
lwrist 23.6728
lhand -25.5442 5.28047
lfingers 7.12502
lthumb 0.98597 35.2579
rfemur -34.9336 0.852791 18.2748
rtibia 76.4153
rfoot -20.3104 -22.5369
rtoes -21.6425
lfemur -2.19615 -12.3818 -30.7391
ltibia 48.1053
lfoot -23.5091 7.95966
ltoes -10.0597
56
root 10.3761 14.7547 0.236658 -220.692 84.732 -216.198
lowerback 11.1562 -1.61017 -7.04186
upperback 4.92768 -2.63941 -0.760375
thorax -0.786906 -1.31821 3.462
lowerneck -11.3369 4.52707 5.85488
upperneck 5.21524 5.68823 -6.0349
head 3.7349 2.6464 -2.40932
rclavicle -1.42628e-014 -1.33186e-014
rhumerus -71.2837 17.1278 -94.5542
rradius 96.1893
rwrist -31.1011
rhand -32.1353 22.3812
rfingers 7.12502
rthumb -5.37934 -7.53049
lclavicle -1.42628e-014 -1.33186e-014
lhumerus -55.2777 -1.2032 86.1875
lradius 111.989
lwrist 23.5605
lhand -24.2434 2.92821
lfingers 7.12502
lthumb 2.24225 32.8962
rfemur -35.5555 1.49573 18.39
rtibia 69.1483
rfoot -21.0177 -21.7451
rtoes -24.148
lfemur 1.12329 -11.5389 -30.7605
ltibia 47.1894
lfoot -18.7928 6.79723
ltoes -11.0768
57
root 11.1164 14.8983 0.250104 -219.646 84.8419 -214.91
lowerback 10.775 -1.93492 -6.63604
upperback 5.08274 -2.99013 -0.622304
thorax -0.395225 -1.50644 3.39424
lowerneck -11.1225 4.75035 5.91015
upperneck 5.10199 6.03043 -6.5262
head 3.70464 2.79829 -2.54815
rclavicle 1.15792e-014 2.5842e-015
rhumerus -73.1011 15.9629 -93.6767
rradius 97.037
rwrist -32.294
rhand -32.0986 21.9084
rfingers 7.12502
rthumb -5.3439 -8.00419
lclavicle 1.15792e-014 2.5842e-015
lhumerus -53.987 -2.33775 86.8925
lradius 114.196
lwrist 23.3106
lhand -23.2075 2.13199
lfingers 7.12502
lthumb 3.24267 32.0871
rfemur -35.4665 2.21507 18.5802
rtibia 60.8911
rfoot -21.5577 -22.4573
rtoes -25.3329
lfemur 3.46281 -10.9934 -30.5243
ltibia 47.2304
lfoot -13.5607 5.77559
ltoes -15.8424
